<svg xmlns="http://www.w3.org/2000/svg" viewBox="0 0 56.74 57.63"><defs><style>.cls-1{fill:#c64e49;}.cls-2{fill:#ed6355;}.cls-3{opacity:0.7;}.cls-4{fill:#fff;}.cls-5{fill:#330b06;}.cls-6{fill:#702e09;}.cls-7{fill:#a83341;}</style></defs><g id="Layer_2" data-name="Layer 2"><g id="icons"><path class="cls-1" d="M56.74,17.46V44.7A13,13,0,0,1,43.81,57.63H12.93A13,13,0,0,1,0,44.7V17.46A12.79,12.79,0,0,1,3,9.18,12.91,12.91,0,0,1,7.43,5.77a12,12,0,0,1,2.42-.86,12.49,12.49,0,0,1,3.08-.38H43.81a12.49,12.49,0,0,1,3.08.38,11.9,11.9,0,0,1,2.51.9s0,0,0,0a13.13,13.13,0,0,1,4.45,3.54h0A12.73,12.73,0,0,1,56.74,17.46Z"/><path class="cls-2" d="M55,16.32v26.6A12.15,12.15,0,0,1,42.84,55H13.9A12.15,12.15,0,0,1,1.79,42.92V16.32a12,12,0,0,1,1.44-5.71A12.3,12.3,0,0,1,7.67,5.94a10.87,10.87,0,0,1,2.18-1,12.49,12.49,0,0,1,3.08-.38H43.81a12.49,12.49,0,0,1,3.08.38A10.92,10.92,0,0,1,49.15,6a12.27,12.27,0,0,1,4.48,4.86A11.85,11.85,0,0,1,55,16.32Z"/><g class="cls-3"><path class="cls-4" d="M15.44,6.28c1.08-.19,2.16-.27,3.23-.41l3.24-.24c2.15-.14,4.31-.13,6.46-.2,2.15.08,4.31.06,6.46.2l3.24.24c1.07.14,2.15.22,3.23.41h0s0,0,0,0a.05.05,0,0,1-.05,0l-12.93,0-12.93,0a0,0,0,0,1,0,0,0,0,0,0,1,0,0Z"/></g><circle class="cls-4" cx="38.87" cy="29.54" r="7.25"/><circle cx="38.87" cy="29.54" r="3.44"/><circle class="cls-4" cx="41.27" cy="27.14" r="1.04"/><circle class="cls-4" cx="16.84" cy="29.71" r="7.25"/><circle cx="16.84" cy="29.71" r="3.44"/><circle class="cls-4" cx="19.24" cy="27.32" r="1.04"/><path class="cls-5" d="M9.93,18a9.26,9.26,0,0,1,8.45-1.32,8.29,8.29,0,0,1,3.74,2.54,9.26,9.26,0,0,1,1.23,1.8,12.35,12.35,0,0,1,.74,2,.76.76,0,0,1-1.22.78l-.1-.09c-.51-.42-.89-.9-1.33-1.31l-.65-.59a3.44,3.44,0,0,0-.66-.55c-.23-.16-.43-.35-.66-.5s-.47-.27-.69-.42a4.73,4.73,0,0,0-.71-.36,4.66,4.66,0,0,0-.73-.3,10.15,10.15,0,0,0-3.21-.58,22.65,22.65,0,0,0-3.54.24h-.1a.76.76,0,0,1-.85-.65A.74.74,0,0,1,9.93,18Z"/><path class="cls-5" d="M45.74,20.08a20.78,20.78,0,0,0-3.51-.55,10,10,0,0,0-3.26.31,4,4,0,0,0-.76.24,4,4,0,0,0-.74.31l-.73.35c-.24.14-.46.32-.7.46a3.82,3.82,0,0,0-.7.49l-.7.54c-.47.38-.89.83-1.42,1.22l-.1.07a.73.73,0,0,1-1-.15.75.75,0,0,1-.1-.69,12.88,12.88,0,0,1,.9-1.92,9.63,9.63,0,0,1,1.38-1.69,8.32,8.32,0,0,1,3.92-2.21,9.28,9.28,0,0,1,8.29,2,.73.73,0,0,1,.06,1,.74.74,0,0,1-.71.23Z"/><path d="M4,13.64a5.06,5.06,0,0,0,9.08-4.46c-1.23-2.51-6.15-1-10-8.87C1.85-2.19,2.76,11.13,4,13.64Z"/><path d="M52.91,13.64a5.06,5.06,0,1,1-9.08-4.46c1.23-2.51,6.15-1,10-8.87C55-2.19,54.14,11.13,52.91,13.64Z"/><path class="cls-6" d="M28.37,49A32.84,32.84,0,0,0,17,51.24a1.25,1.25,0,0,1-1.74-1.11v0a1.44,1.44,0,0,1,.33-.91c1.66-2,5.51-8.88,12.89-8.88s11,7,12.78,9a1.34,1.34,0,0,1,0,1.69,1,1,0,0,1-.67.35A35.67,35.67,0,0,0,28.37,49Z"/><path class="cls-7" d="M28.37,44.75c-3.33,0-5.24,2.53-6.22,3.71a.66.66,0,0,0,.61,1.07A39.11,39.11,0,0,1,28.37,49a40.92,40.92,0,0,1,5.61.58.66.66,0,0,0,.61-1.07C33.61,47.28,31.71,44.75,28.37,44.75Z"/><path class="cls-4" d="M22.1,42.24H34.7a11.3,11.3,0,0,0-12.6,0Z"/></g></g></svg>