<svg id="icons" xmlns="http://www.w3.org/2000/svg" viewBox="0 0 64 64"><defs><style>.cls-1{fill:#c64e49;}.cls-2{fill:#ed6355;}.cls-3{opacity:0.7;}.cls-4{fill:#fff;}.cls-5{fill:#330b06;}.cls-6{fill:#702e09;}.cls-7{fill:#a83341;}</style></defs><title>Smiling Face With Horns</title><g id="Smiling_Face_With_Horns" data-name="Smiling Face With Horns"><path class="cls-1" d="M60.37,19.44V46.68A13,13,0,0,1,47.44,59.61H16.56A13,13,0,0,1,3.63,46.68V19.44A13,13,0,0,1,11.06,7.75a12,12,0,0,1,2.42-.86,12.49,12.49,0,0,1,3.08-.38H47.44a12.49,12.49,0,0,1,3.08.38,11.9,11.9,0,0,1,2.51.9h0a13.13,13.13,0,0,1,4.45,3.54h0A12.73,12.73,0,0,1,60.37,19.44Z"/><path class="cls-2" d="M58.58,18.3V44.9A12.15,12.15,0,0,1,46.47,57H17.53A12.15,12.15,0,0,1,5.42,44.9V18.3a12,12,0,0,1,1.44-5.71A12.3,12.3,0,0,1,11.3,7.92a10.87,10.87,0,0,1,2.18-1,12.49,12.49,0,0,1,3.08-.38H47.44a12.49,12.49,0,0,1,3.08.38A10.92,10.92,0,0,1,52.78,8a12.27,12.27,0,0,1,4.48,4.86A11.85,11.85,0,0,1,58.58,18.3Z"/><g class="cls-3"><path class="cls-4" d="M19.07,8.26c1.08-.19,2.16-.28,3.23-.42l3.24-.23c2.15-.14,4.31-.13,6.46-.2s4.31.06,6.46.2l3.24.24c1.07.14,2.15.22,3.23.41h0a.07.07,0,0,1,0,.06.07.07,0,0,1,0,0L32,8.41,19.07,8.36a0,0,0,0,1-.05,0,.07.07,0,0,1,0-.05Z"/></g><circle class="cls-4" cx="42.5" cy="31.51" r="7.25"/><circle cx="42.5" cy="31.51" r="3.44"/><circle class="cls-4" cx="44.9" cy="29.11" r="1.04"/><circle class="cls-4" cx="20.47" cy="31.69" r="7.25"/><circle cx="20.47" cy="31.69" r="3.44"/><circle class="cls-4" cx="22.87" cy="29.29" r="1.04"/><path class="cls-5" d="M13.56,20A9.26,9.26,0,0,1,22,18.7a8.35,8.35,0,0,1,3.74,2.53A9,9,0,0,1,27,23a12.6,12.6,0,0,1,.74,2,.77.77,0,0,1-.53.94.8.8,0,0,1-.69-.15l-.1-.09c-.51-.43-.89-.91-1.33-1.32l-.65-.59a3.39,3.39,0,0,0-.66-.54c-.23-.16-.43-.35-.66-.51l-.69-.41A4,4,0,0,0,21.7,22a3.87,3.87,0,0,0-.73-.3,10.45,10.45,0,0,0-3.21-.59,23.93,23.93,0,0,0-3.54.24l-.1,0a.76.76,0,0,1-.85-.65A.73.73,0,0,1,13.56,20Z"/><path class="cls-5" d="M49.37,22.05a23,23,0,0,0-3.51-.55,10.28,10.28,0,0,0-3.26.32,4,4,0,0,0-.76.24,4,4,0,0,0-.74.3c-.24.13-.49.24-.73.36s-.46.31-.7.45a3.44,3.44,0,0,0-.7.5l-.7.54c-.47.38-.89.83-1.42,1.21l-.1.08a.72.72,0,0,1-1-.16.75.75,0,0,1-.1-.69,13.36,13.36,0,0,1,.9-1.92,9.56,9.56,0,0,1,1.38-1.68,8.32,8.32,0,0,1,3.92-2.21,9.28,9.28,0,0,1,8.29,2,.73.73,0,0,1-.65,1.25Z"/><path d="M7.62,15.61a5.06,5.06,0,1,0,9.08-4.45c-1.23-2.51-6.15-1.05-10-8.87C5.48-.22,6.39,13.1,7.62,15.61Z"/><path d="M56.54,15.61a5.06,5.06,0,1,1-9.08-4.45c1.23-2.51,6.15-1.05,10-8.87C58.67-.22,57.77,13.1,56.54,15.61Z"/><path class="cls-6" d="M32,45a58.57,58.57,0,0,0,15.45-2.2,1.63,1.63,0,0,1,1.43,1.78,1.86,1.86,0,0,1-.42,1.16c-2.14,2.53-7.08,7.12-16.55,7.12S17.75,48.18,15.5,45.57a1.73,1.73,0,0,1,0-2.17,1.24,1.24,0,0,1,.86-.45A65.37,65.37,0,0,0,32,45Z"/><ellipse class="cls-7" cx="31.94" cy="49.38" rx="10.6" ry="3.47"/><path class="cls-4" d="M20.06,43.79A67.64,67.64,0,0,0,32,44.67a54.12,54.12,0,0,0,13-1.24v1a1.52,1.52,0,0,1-1.52,1.52H21.59a1.52,1.52,0,0,1-1.53-1.52Z"/></g></svg>