<svg id="icons" xmlns="http://www.w3.org/2000/svg" viewBox="0 0 64 64"><defs><style>.cls-1{fill:#c64e49;}.cls-2{fill:#ed6355;}.cls-3{opacity:0.7;}.cls-4{fill:#fff;}.cls-5{fill:#330b06;}.cls-6{fill:#702e09;}</style></defs><title>Angry Face With Horns</title><g id="Angry_Face_With_Horns" data-name="Angry Face With Horns"><path class="cls-1" d="M60.37,18.54V45.78A13,13,0,0,1,47.44,58.71H16.56A13,13,0,0,1,3.63,45.78V18.54A13,13,0,0,1,13.58,6a12.66,12.66,0,0,1,3-.35H47.44a12.66,12.66,0,0,1,3,.35A12.85,12.85,0,0,1,53,6.89s0,0,0,0a13,13,0,0,1,4.45,3.55A12.73,12.73,0,0,1,60.37,18.54Z"/><path class="cls-2" d="M58.58,17.4V44A12.15,12.15,0,0,1,46.47,56.12H17.53A12.15,12.15,0,0,1,5.42,44V17.4a12,12,0,0,1,1.44-5.71A12.25,12.25,0,0,1,11.31,7,11.46,11.46,0,0,1,13.58,6a12.66,12.66,0,0,1,3-.35H47.44a12.66,12.66,0,0,1,3,.35,11.84,11.84,0,0,1,2.36,1.11,12.33,12.33,0,0,1,4.48,4.86A11.85,11.85,0,0,1,58.58,17.4Z"/><g class="cls-3"><path class="cls-4" d="M19.07,7.36c1.08-.19,2.16-.27,3.23-.41l3.24-.24c2.15-.14,4.31-.13,6.46-.2s4.31.06,6.46.2L41.7,7c1.07.14,2.15.22,3.23.41h0a.07.07,0,0,1,0,.06.05.05,0,0,1,0,0L32,7.51l-12.93,0a0,0,0,0,1-.05,0,.07.07,0,0,1,0,0Z"/></g><circle class="cls-4" cx="42.5" cy="30.61" r="7.25"/><circle cx="42.5" cy="30.61" r="3.44"/><circle class="cls-4" cx="44.9" cy="28.22" r="1.04"/><circle class="cls-4" cx="20.47" cy="30.79" r="7.25"/><circle cx="20.47" cy="30.79" r="3.44"/><circle class="cls-4" cx="22.87" cy="28.4" r="1.04"/><path class="cls-5" d="M13.57,19.14A9.26,9.26,0,0,1,22,17.85a8.37,8.37,0,0,1,3.72,2.52A9.34,9.34,0,0,1,27,22.16a11.69,11.69,0,0,1,.74,2,.72.72,0,0,1-.5.9.73.73,0,0,1-.67-.14l-.1-.09c-.5-.43-.88-.91-1.32-1.33l-.65-.59a3.44,3.44,0,0,0-.66-.55c-.23-.16-.43-.36-.66-.51s-.47-.27-.7-.42a4.34,4.34,0,0,0-.71-.37,4.41,4.41,0,0,0-.74-.3,10.22,10.22,0,0,0-3.22-.58,21.6,21.6,0,0,0-3.55.26l-.1,0a.72.72,0,0,1-.82-.62A.74.74,0,0,1,13.57,19.14Z"/><path class="cls-5" d="M49.37,21.15a23,23,0,0,0-3.51-.55,10.28,10.28,0,0,0-3.26.32,4,4,0,0,0-.76.24,3.41,3.41,0,0,0-.74.31l-.73.35c-.24.14-.46.32-.7.46a3.39,3.39,0,0,0-.7.49l-.7.54c-.47.38-.89.83-1.42,1.22l-.1.07a.72.72,0,0,1-1-.16.74.74,0,0,1-.1-.69,12.77,12.77,0,0,1,.9-1.91,9.63,9.63,0,0,1,1.38-1.69,8.32,8.32,0,0,1,3.92-2.21,9,9,0,0,1,4.46,0,9.18,9.18,0,0,1,3.83,2,.73.73,0,0,1,.06,1,.74.74,0,0,1-.71.23Z"/><path class="cls-6" d="M32,44.3c-4.59,0-8.51,3.24-8.51,3.24a.91.91,0,0,1-.8-1,1.1,1.1,0,0,1,.24-.65A11.38,11.38,0,0,1,32,42a11.16,11.16,0,0,1,9.06,4,1,1,0,0,1,0,1.2.69.69,0,0,1-.48.25S36.59,44.29,32,44.3Z"/><path d="M7.62,14.72a5.06,5.06,0,0,0,9.08-4.46c-1.23-2.51-6.15-1-10-8.87C5.48-1.12,6.39,12.21,7.62,14.72Z"/><path d="M56.54,14.72a5.06,5.06,0,0,1-9.08-4.46c1.23-2.51,6.15-1,10-8.87C58.67-1.12,57.77,12.21,56.54,14.72Z"/></g></svg>