<svg id="icons" xmlns="http://www.w3.org/2000/svg" viewBox="0 0 64 64"><defs><style>.cls-1{fill:#fcce65;}.cls-2{fill:#ffe59d;}.cls-3{opacity:0.7;}.cls-4{fill:#fff;}.cls-5{fill:#702e09;}.cls-6{fill:#f28876;}.cls-7{fill:#330b06;}</style></defs><title>Winking Face</title><g id="Winking_Face" data-name="Winking Face"><path class="cls-1" d="M60.37,17.25V44.49A13,13,0,0,1,47.44,57.42H16.56A13,13,0,0,1,3.63,44.49V17.25a13,13,0,0,1,10-12.59,12.66,12.66,0,0,1,3-.35H47.44a12.66,12.66,0,0,1,3,.35A13,13,0,0,1,60.37,17.25Z"/><path class="cls-2" d="M58.58,16.11v26.6A12.15,12.15,0,0,1,46.47,54.83H17.53A12.15,12.15,0,0,1,5.42,42.71V16.11A12.15,12.15,0,0,1,13.58,4.66a12.66,12.66,0,0,1,3-.35H47.44a12.66,12.66,0,0,1,3,.35A12.15,12.15,0,0,1,58.58,16.11Z"/><g class="cls-3"><path class="cls-4" d="M19.07,6.07c1.08-.2,2.16-.28,3.23-.42l3.24-.24c2.15-.13,4.31-.13,6.46-.19s4.31.06,6.46.2l3.24.23c1.07.14,2.15.23,3.23.42h0s0,0,0,.06a.07.07,0,0,1,0,0L32,6.22l-12.93,0a.05.05,0,0,1-.05,0,0,0,0,0,1,0,0Z"/></g><path class="cls-5" d="M32.05,40.64a52.29,52.29,0,0,0,13.61-1.93l.1,0A1.48,1.48,0,0,1,47,40.27a1.7,1.7,0,0,1-.38,1C44.7,43.53,40.34,47.59,32,47.59s-12.51-4.13-14.5-6.44a1.52,1.52,0,0,1,0-1.91,1,1,0,0,1,.76-.4A57.85,57.85,0,0,0,32.05,40.64Z"/><path class="cls-6" d="M41.37,44.52c0,1.69-4.2,3.07-9.37,3.07s-9.37-1.38-9.37-3.07,4.2-2.07,9.37-2.07S41.37,42.83,41.37,44.52Z"/><path class="cls-4" d="M21.5,39.86a.25.25,0,0,1,.29-.24,59.47,59.47,0,0,0,10.26.74,47.35,47.35,0,0,0,11.17-1,.25.25,0,0,1,.31.24v.3a1.6,1.6,0,0,1-1.6,1.59H23.09a1.59,1.59,0,0,1-1.59-1.59Z"/><path d="M36.81,26.83a9.26,9.26,0,0,1,8.07-2.73A8.34,8.34,0,0,1,49,25.94a9.68,9.68,0,0,1,1.52,1.55,11.65,11.65,0,0,1,1.07,1.83.73.73,0,0,1-.33,1,.75.75,0,0,1-.7,0l-.11-.07c-.56-.34-1-.74-1.52-1.08l-.75-.47a3.24,3.24,0,0,0-.74-.43c-.26-.12-.49-.27-.74-.39l-.76-.29a5.15,5.15,0,0,0-.76-.24,4.32,4.32,0,0,0-.78-.16,10,10,0,0,0-3.28,0,22.35,22.35,0,0,0-3.45.87l-.09,0a.72.72,0,0,1-.92-.47A.7.7,0,0,1,36.81,26.83Z"/><circle class="cls-4" cx="21.5" cy="29.27" r="7.25"/><circle cx="21.5" cy="29.27" r="3.44"/><circle class="cls-4" cx="23.9" cy="26.87" r="1.04"/><path class="cls-7" d="M10.39,21A8.52,8.52,0,0,1,11.5,17.7,8,8,0,0,1,14,15a7.8,7.8,0,0,1,3.59-1.24,8.89,8.89,0,0,1,1.86,0c.6.09,1.18.22,1.76.36a1.58,1.58,0,0,1-.44,3.12h-.29c-.45,0-.9-.12-1.33-.14a10.93,10.93,0,0,0-1.28,0,6.28,6.28,0,0,0-2.35.56,7,7,0,0,0-2.09,1.48,12.49,12.49,0,0,0-1.69,2.25l0,.09a.72.72,0,0,1-1,.26A.69.69,0,0,1,10.39,21Z"/><path class="cls-7" d="M50.57,24.4a12,12,0,0,0-2-1.93,6.92,6.92,0,0,0-2.31-1.11,6.35,6.35,0,0,0-2.42-.14,9.37,9.37,0,0,0-1.25.22c-.43.09-.85.27-1.3.36l-.28.06a1.59,1.59,0,0,1-1-3,16.21,16.21,0,0,1,1.68-.65,8.44,8.44,0,0,1,1.83-.32,7.59,7.59,0,0,1,3.75.61,7.92,7.92,0,0,1,3,2.21,8.68,8.68,0,0,1,1.67,3.09.73.73,0,0,1-1.25.68Z"/></g></svg>