<?xml version="1.0" standalone="no"?>
<!DOCTYPE svg PUBLIC "-//W3C//DTD SVG 20010904//EN"
 "http://www.w3.org/TR/2001/REC-SVG-20010904/DTD/svg10.dtd">
<svg version="1.0" xmlns="http://www.w3.org/2000/svg"
 width="104.000000pt" height="104.000000pt" viewBox="0 0 104.000000 104.000000"
 preserveAspectRatio="xMidYMid meet">
<metadata>
Created by potrace 1.11, written by Peter Selinger 2001-2013
</metadata>
<g transform="translate(0.000000,104.000000) scale(0.100000,-0.100000)"
fill="#000000" stroke="none">
<path d="M345 844 c-88 -42 -197 -93 -242 -114 -78 -37 -103 -60 -103 -95 0
-15 53 -134 171 -380 28 -60 59 -115 68 -122 24 -19 71 -15 120 11 l43 22 27
-26 27 -27 259 2 c143 1 266 3 273 3 6 1 21 11 32 22 19 19 20 33 20 290 l0
271 -25 24 c-24 25 -27 25 -198 25 l-173 0 -34 71 c-19 38 -40 75 -46 80 -30
25 -64 16 -219 -57z m177 -41 c21 -19 24 -66 5 -81 -41 -34 -92 -19 -101 31
-9 54 55 87 96 50z m148 -98 c0 -5 -5 -3 -10 5 -5 8 -10 20 -10 25 0 6 5 3 10
-5 5 -8 10 -19 10 -25z m18 -40 c-3 -3 -9 2 -12 12 -6 14 -5 15 5 6 7 -7 10
-15 7 -18z m258 -20 c42 -65 -36 -124 -91 -69 -21 21 -19 50 5 74 28 28 66 26
86 -5z m-744 -2 c26 -24 23 -69 -7 -89 -29 -19 -60 -11 -81 20 -36 56 38 115
88 69z m240 -80 c26 -24 23 -69 -6 -88 -49 -32 -107 14 -86 69 14 38 60 48 92
19z m348 -107 c0 -12 -5 -7 -19 24 -11 24 -11 24 3 6 9 -11 16 -24 16 -30z
m-108 17 c24 -21 23 -58 -2 -83 -26 -26 -54 -25 -79 1 -51 55 25 133 81 82z
m125 -85 c-3 -7 -5 -2 -5 12 0 14 2 19 5 13 2 -7 2 -19 0 -25z m-14 -33 c-3
-9 -8 -14 -10 -11 -3 3 -2 9 2 15 9 16 15 13 8 -4z m-28 -25 c-3 -5 -12 -10
-18 -10 -7 0 -6 4 3 10 19 12 23 12 15 0z m-412 -14 c25 -19 22 -71 -5 -90
-31 -22 -45 -20 -73 8 -54 55 16 129 78 82z m589 -23 c31 -28 21 -79 -18 -94
-56 -21 -102 37 -69 87 18 28 60 32 87 7z m-292 -18 c-14 -8 -29 -14 -35 -14
-5 0 1 6 15 14 14 8 30 14 35 14 6 0 -1 -6 -15 -14z m-75 -35 c-3 -5 -12 -10
-18 -10 -7 0 -6 4 3 10 19 12 23 12 15 0z m-60 -30 c-3 -5 -12 -10 -18 -10 -7
0 -6 4 3 10 19 12 23 12 15 0z"/>
</g>
</svg>
