<svg xmlns="http://www.w3.org/2000/svg" viewBox="0 0 104.4 80.67"><defs><style>.cls-1{fill:#8bd9f2;}.cls-2{fill:#ff7678;}</style></defs><g id="Layer_2" data-name="Layer 2"><g id="Icons"><path class="cls-1" d="M96.83,16.67H65.13L80.36,48.85a7.57,7.57,0,0,1-3.6,10.08L40.94,75.88a7.55,7.55,0,0,0,7,4.79H96.83a7.57,7.57,0,0,0,7.57-7.57V24.24A7.57,7.57,0,0,0,96.83,16.67Zm-6.43,56a6,6,0,1,1,6-6A6,6,0,0,1,90.4,72.67Zm0-36a6,6,0,1,1,6-6A6,6,0,0,1,90.4,36.67Z"/><path class="cls-2" d="M79.59,48.57,58.65,4.33A7.57,7.57,0,0,0,48.57.73L4.33,21.66A7.57,7.57,0,0,0,.73,31.74L21.66,76a7.58,7.58,0,0,0,10.08,3.61L76,58.65A7.58,7.58,0,0,0,79.59,48.57ZM19,37.09a6,6,0,1,1,2.85-8A6,6,0,0,1,19,37.09Zm15,33a6,6,0,1,1,2.85-8A6,6,0,0,1,34,70.09Zm9-25a6,6,0,1,1,2.85-8A6,6,0,0,1,43,45.09Zm8-24a6,6,0,1,1,2.85-8A6,6,0,0,1,51,21.09Zm16,33a6,6,0,1,1,2.85-8A6,6,0,0,1,67,54.09Z"/></g></g></svg>